<?xml version="1.0" encoding="UTF-8" standalone="no"?>
<!-- Created with Inkscape (http://www.inkscape.org/) -->

<svg
   width="28"
   height="28"
   viewBox="0 0 7.4083332 7.4083333"
   version="1.1"
   id="svg5"
   xml:space="preserve"
   inkscape:version="1.2.2 (732a01da63, 2022-12-09)"
   sodipodi:docname="chat-ink.svg"
   xmlns:inkscape="http://www.inkscape.org/namespaces/inkscape"
   xmlns:sodipodi="http://sodipodi.sourceforge.net/DTD/sodipodi-0.dtd"
   xmlns="http://www.w3.org/2000/svg"
   xmlns:svg="http://www.w3.org/2000/svg"><sodipodi:namedview
     id="namedview7"
     pagecolor="#ffffff"
     bordercolor="#000000"
     borderopacity="0.25"
     inkscape:showpageshadow="2"
     inkscape:pageopacity="0.0"
     inkscape:pagecheckerboard="0"
     inkscape:deskcolor="#d1d1d1"
     inkscape:document-units="px"
     showgrid="false"
     inkscape:zoom="22.627417"
     inkscape:cx="15.24699"
     inkscape:cy="20.506097"
     inkscape:window-width="1350"
     inkscape:window-height="911"
     inkscape:window-x="264"
     inkscape:window-y="1118"
     inkscape:window-maximized="0"
     inkscape:current-layer="layer1" /><defs
     id="defs2" /><g
     inkscape:label="Layer 1"
     inkscape:groupmode="layer"
     id="layer1"><path
       id="rect1384"
       style="fill:#808080;stroke-width:2.117;stroke-linecap:square;stroke-miterlimit:1.68;paint-order:stroke fill markers"
       d="M 0.79374999 1.3229167 C 0.64717113 1.3229167 0.52916666 1.4409211 0.52916666 1.5875 L 0.52916666 5.8208333 C 0.52916666 5.9674121 0.64717113 6.0854166 0.79374999 6.0854166 L 2.1166666 6.0854166 L 2.1166666 7.4083333 L 3.4395833 6.0854166 L 6.6145833 6.0854166 C 6.7611621 6.0854166 6.8791666 5.9674121 6.8791666 5.8208333 L 6.8791666 1.5875 C 6.8791666 1.4409211 6.7611621 1.3229167 6.6145833 1.3229167 L 0.79374999 1.3229167 z M 1.3229167 2.1166666 L 6.0854166 2.1166666 L 6.0854166 5.2916666 L 1.3229167 5.2916666 L 1.3229167 2.1166666 z M 1.8520833 3.7041666 L 1.8520833 4.4979166 L 2.6458333 4.4979166 L 2.6458333 3.7041666 L 1.8520833 3.7041666 z M 3.175 3.7041666 L 3.175 4.4979166 L 3.96875 4.4979166 L 3.96875 3.7041666 L 3.175 3.7041666 z M 4.4979166 3.7041666 L 4.4979166 4.4979166 L 5.2916666 4.4979166 L 5.2916666 3.7041666 L 4.4979166 3.7041666 z " /></g></svg>
