<?xml version="1.0" encoding="UTF-8" standalone="no"?>
<!-- Created with Inkscape (http://www.inkscape.org/) -->

<svg
   width="28"
   height="28"
   viewBox="0 0 7.4083332 7.4083333"
   version="1.1"
   id="svg5"
   xml:space="preserve"
   inkscape:version="1.2.2 (732a01da63, 2022-12-09)"
   sodipodi:docname="gear-ink.svg"
   xmlns:inkscape="http://www.inkscape.org/namespaces/inkscape"
   xmlns:sodipodi="http://sodipodi.sourceforge.net/DTD/sodipodi-0.dtd"
   xmlns="http://www.w3.org/2000/svg"
   xmlns:svg="http://www.w3.org/2000/svg"><sodipodi:namedview
     id="namedview7"
     pagecolor="#ffffff"
     bordercolor="#000000"
     borderopacity="0.25"
     inkscape:showpageshadow="2"
     inkscape:pageopacity="0.0"
     inkscape:pagecheckerboard="0"
     inkscape:deskcolor="#d1d1d1"
     inkscape:document-units="px"
     showgrid="false"
     inkscape:zoom="11.313708"
     inkscape:cx="5.568466"
     inkscape:cy="16.440233"
     inkscape:window-width="1920"
     inkscape:window-height="1017"
     inkscape:window-x="-8"
     inkscape:window-y="1042"
     inkscape:window-maximized="1"
     inkscape:current-layer="layer1" /><defs
     id="defs2" /><g
     inkscape:label="Layer 1"
     inkscape:groupmode="layer"
     id="layer1"><path
       id="rect580"
       style="fill:#808080;stroke-width:2.117;stroke-linecap:square;stroke-miterlimit:1.68;paint-order:stroke fill markers;fill-opacity:1"
       d="M 3.175 0.79374999 C 3.0284212 0.79374999 2.9104166 0.91175465 2.9104166 1.0583333 L 2.9104166 1.8086751 L 2.4592814 2.0691243 L 1.8097086 1.6939534 C 1.6827679 1.6206641 1.5217797 1.6636474 1.4484904 1.7905884 L 1.3161987 2.0200317 L 1.1839071 2.2489583 L 1.0516154 2.4778849 C 1.0512272 2.4785572 1.0509635 2.4792777 1.0505819 2.479952 L 0.91932372 2.7073283 C 0.84603435 2.834269 0.88901784 2.9952572 1.0159586 3.0685465 L 1.6660482 3.4437174 L 1.6660482 3.9646158 L 1.0159586 4.3397867 C 0.88901784 4.4130762 0.84603435 4.574064 0.91932372 4.701005 L 1.0505819 4.9283813 C 1.0509635 4.9290555 1.0512272 4.929776 1.0516154 4.9304483 L 1.3161987 5.3883015 L 1.4484904 5.6177449 C 1.5217797 5.7446858 1.6827679 5.7876691 1.8097086 5.7143798 L 2.4592814 5.3392089 L 2.9104166 5.5996581 L 2.9104166 6.3499999 C 2.9104166 6.4965787 3.0284212 6.6145833 3.175 6.6145833 L 3.4395833 6.6145833 L 3.96875 6.6145833 L 4.2333333 6.6145833 C 4.3799119 6.6145833 4.4979166 6.4965787 4.4979166 6.3499999 L 4.4979166 5.6006917 L 4.9500854 5.3397257 L 5.5986246 5.7143798 C 5.7255656 5.7876691 5.8865534 5.7446858 5.9598429 5.6177449 L 6.0921345 5.3883015 L 6.2244262 5.1593749 L 6.3567179 4.9304483 C 6.357106 4.929776 6.3573698 4.9290555 6.3577514 4.9283813 L 6.4890095 4.701005 C 6.562299 4.574064 6.5193156 4.4130762 6.3923746 4.3397867 L 5.7433186 3.9651326 L 5.7433186 3.4432006 L 6.3923746 3.0685465 C 6.5193156 2.9952572 6.562299 2.834269 6.4890095 2.7073283 L 6.3577514 2.479952 L 6.3567179 2.4778849 L 6.0921345 2.0200317 L 5.9598429 1.7905884 C 5.8865534 1.6636474 5.7255656 1.6206641 5.5986246 1.6939534 L 4.9500854 2.0686076 L 4.4979166 1.8076416 L 4.4979166 1.0583333 C 4.4979166 0.91175465 4.3799119 0.79374999 4.2333333 0.79374999 L 3.96875 0.79374999 L 3.4395833 0.79374999 L 3.175 0.79374999 z M 3.7041666 2.6458333 L 4.6209065 3.175 L 4.6209065 4.2333333 L 3.7041666 4.7624999 L 2.7874267 4.2333333 L 2.7874267 3.175 L 3.7041666 2.6458333 z " /></g></svg>
